<?xml version="1.0" encoding="UTF-8"?>
<svg xmlns="http://www.w3.org/2000/svg" xmlns:xlink="http://www.w3.org/1999/xlink" viewBox="0 0 36 36" width="36px" height="36px">
<g id="surface2540411">
<path style=" stroke:none;fill-rule:nonzero;fill:rgb(80.000001%,80.000001%,80.000001%);fill-opacity:1;" d="M 18 1.441406 C 8.863281 1.441406 1.441406 8.863281 1.441406 18 C 1.441406 27.136719 8.863281 34.558594 18 34.558594 C 27.136719 34.558594 34.558594 27.136719 34.558594 18 C 34.558594 8.863281 27.136719 1.441406 18 1.441406 Z M 18 2.878906 C 26.355469 2.878906 33.121094 9.644531 33.121094 18 C 33.121094 18.050781 33.117188 18.101562 33.117188 18.152344 C 32.65625 18.109375 32.125 18.070312 31.445312 18.046875 C 30.488281 18.011719 29.285156 18.023438 27.917969 18.089844 C 27.96875 17.738281 28.003906 17.378906 28.003906 17.011719 C 28.074219 15.664062 27.621094 14.402344 26.882812 13.289062 C 27.0625 12.671875 27.269531 11.890625 27.324219 11.003906 C 27.382812 9.992188 27.296875 8.871094 26.484375 8.113281 L 26.277344 7.921875 L 25.992188 7.921875 C 24.058594 7.921875 22.738281 8.730469 21.929688 9.371094 C 20.761719 8.917969 19.449219 8.640625 18 8.640625 C 16.542969 8.640625 15.21875 8.921875 14.003906 9.371094 C 13.195312 8.730469 11.871094 7.921875 9.9375 7.921875 L 9.652344 7.921875 L 9.445312 8.113281 C 8.65625 8.847656 8.582031 9.9375 8.632812 10.945312 C 8.675781 11.832031 8.871094 12.636719 9.046875 13.28125 C 8.296875 14.417969 7.847656 15.710938 7.847656 16.992188 C 7.847656 17.359375 7.882812 17.71875 7.933594 18.074219 C 6.632812 18.011719 5.472656 18 4.554688 18.035156 C 3.875 18.058594 3.34375 18.097656 2.882812 18.140625 C 2.882812 18.09375 2.878906 18.046875 2.878906 18 C 2.878906 9.644531 9.644531 2.878906 18 2.878906 Z M 10.367188 9.453125 C 11.816406 9.59375 12.910156 10.242188 13.417969 10.691406 L 13.753906 10.988281 L 14.171875 10.816406 C 15.308594 10.347656 16.578125 10.078125 18 10.078125 C 19.421875 10.078125 20.691406 10.351562 21.742188 10.8125 L 22.164062 10.996094 L 22.511719 10.691406 C 23.015625 10.242188 24.109375 9.589844 25.5625 9.453125 C 25.757812 9.773438 25.925781 10.230469 25.886719 10.917969 C 25.835938 11.746094 25.617188 12.644531 25.449219 13.175781 L 25.339844 13.523438 L 25.554688 13.816406 C 26.269531 14.789062 26.632812 15.839844 26.570312 16.953125 L 26.566406 16.972656 L 26.566406 16.992188 C 26.566406 18.789062 25.921875 20.226562 24.542969 21.292969 C 23.164062 22.359375 20.988281 23.039062 17.929688 23.039062 C 14.867188 23.039062 12.691406 22.359375 11.3125 21.292969 C 9.933594 20.226562 9.289062 18.789062 9.289062 16.992188 C 9.289062 15.9375 9.667969 14.777344 10.371094 13.816406 L 10.582031 13.53125 L 10.480469 13.1875 C 10.316406 12.621094 10.109375 11.703125 10.070312 10.875 C 10.035156 10.183594 10.199219 9.746094 10.367188 9.453125 Z M 6.398438 18.734375 C 6.90625 18.742188 7.488281 18.769531 8.074219 18.796875 C 8.128906 19.023438 8.191406 19.242188 8.269531 19.460938 C 5.890625 19.511719 4.105469 19.75 3.007812 19.953125 C 2.964844 19.59375 2.925781 19.230469 2.90625 18.863281 C 3.714844 18.785156 4.859375 18.714844 6.398438 18.734375 Z M 29.601562 18.746094 C 31.136719 18.726562 32.28125 18.796875 33.09375 18.875 C 33.074219 19.238281 33.035156 19.59375 32.992188 19.949219 C 31.851562 19.742188 30.023438 19.503906 27.582031 19.464844 C 27.65625 19.253906 27.71875 19.035156 27.773438 18.816406 C 28.417969 18.78125 29.046875 18.753906 29.601562 18.746094 Z M 8.578125 20.175781 C 9.007812 21.035156 9.621094 21.804688 10.429688 22.429688 C 11.539062 23.289062 12.984375 23.886719 14.742188 24.207031 C 14.511719 24.445312 14.304688 24.703125 14.117188 24.980469 L 14.074219 24.941406 C 14.078125 24.9375 13.714844 25.117188 13.175781 25.167969 C 12.632812 25.214844 11.96875 25.199219 11.375 25.199219 C 10.496094 25.199219 10.105469 24.785156 9.484375 24.023438 C 9.140625 23.5625 8.722656 23.1875 8.316406 22.902344 C 7.898438 22.609375 7.542969 22.402344 7.101562 22.328125 L 7.042969 22.320312 L 6.984375 22.320312 C 6.648438 22.320312 6.324219 22.34375 6.019531 22.691406 C 5.867188 22.863281 5.761719 23.1875 5.832031 23.457031 C 5.898438 23.730469 6.070312 23.898438 6.222656 24 C 7.207031 24.65625 7.382812 25.953125 8 27.109375 C 8.574219 28.257812 9.816406 28.800781 11.089844 28.800781 L 12.960938 28.800781 L 12.960938 32.257812 C 7.898438 30.472656 4.078125 26.066406 3.117188 20.667969 C 4.222656 20.457031 6.066406 20.210938 8.578125 20.175781 Z M 27.277344 20.179688 C 29.839844 20.203125 31.738281 20.449219 32.882812 20.660156 C 31.925781 26.066406 28.105469 30.46875 23.039062 32.257812 L 23.039062 28.511719 C 23.039062 27.371094 22.664062 26.113281 22.011719 25.0625 C 21.816406 24.746094 21.582031 24.445312 21.324219 24.171875 C 22.988281 23.84375 24.359375 23.253906 25.425781 22.429688 C 26.234375 21.804688 26.847656 21.039062 27.277344 20.179688 Z M 17.0625 24.550781 L 19.078125 24.550781 C 19.664062 24.550781 20.289062 25.019531 20.789062 25.824219 C 21.289062 26.628906 21.601562 27.707031 21.601562 28.511719 L 21.601562 32.6875 C 20.445312 32.96875 19.242188 33.121094 18 33.121094 C 16.757812 33.121094 15.554688 32.96875 14.398438 32.6875 L 14.398438 28.511719 C 14.398438 27.726562 14.738281 26.648438 15.269531 25.839844 C 15.804688 25.03125 16.476562 24.550781 17.0625 24.550781 Z M 8.863281 25.402344 C 9.484375 26.050781 10.238281 26.640625 11.375 26.640625 C 11.9375 26.640625 12.636719 26.660156 13.304688 26.601562 C 13.304688 26.601562 13.308594 26.597656 13.308594 26.597656 C 13.222656 26.851562 13.15625 27.105469 13.101562 27.359375 L 11.089844 27.359375 C 10.199219 27.359375 9.574219 27.039062 9.285156 26.460938 L 9.277344 26.453125 L 9.273438 26.441406 C 9.15625 26.222656 9 25.785156 8.863281 25.402344 Z M 8.863281 25.402344 "/>
</g>
</svg>
